<svg width="9" height="12" viewBox="0 0 9 12" fill="none" xmlns="http://www.w3.org/2000/svg">
<path d="M4.5 11.5C4.5 11.5 8.5 7.59088 8.5 4.625C8.5 3.53098 8.07857 2.48177 7.32843 1.70818C6.57828 0.934597 5.56087 0.5 4.5 0.5C3.43913 0.5 2.42172 0.934597 1.67157 1.70818C0.921427 2.48177 0.5 3.53098 0.5 4.625C0.5 7.59088 4.5 11.5 4.5 11.5ZM4.5 6.6875C3.96957 6.6875 3.46086 6.4702 3.08579 6.08341C2.71071 5.69661 2.5 5.17201 2.5 4.625C2.5 4.07799 2.71071 3.55339 3.08579 3.16659C3.46086 2.7798 3.96957 2.5625 4.5 2.5625C5.03043 2.5625 5.53914 2.7798 5.91421 3.16659C6.28929 3.55339 6.5 4.07799 6.5 4.625C6.5 5.17201 6.28929 5.69661 5.91421 6.08341C5.53914 6.4702 5.03043 6.6875 4.5 6.6875Z" fill="#FDFDFD"/>
</svg>
