<svg width="10" height="18" viewBox="0 0 10 18" fill="none" xmlns="http://www.w3.org/2000/svg">
<path d="M9.57813 0.918643C9.44555 0.785989 9.2878 0.680699 9.11401 0.608847C8.94021 0.536994 8.7538 0.5 8.56552 0.5C8.37724 0.5 8.19083 0.536994 8.01703 0.608847C7.84324 0.680699 7.6855 0.785989 7.55291 0.918643L0.42187 7.99514C0.288194 8.12671 0.182092 8.28324 0.109685 8.45571C0.0372786 8.62818 0 8.81316 0 9C0 9.18684 0.0372786 9.37182 0.109685 9.54429C0.182092 9.71676 0.288194 9.87329 0.42187 10.0049L7.55291 17.0814C7.6855 17.214 7.84324 17.3193 8.01703 17.3912C8.19083 17.463 8.37724 17.5 8.56552 17.5C8.7538 17.5 8.94021 17.463 9.11401 17.3912C9.2878 17.3193 9.44555 17.214 9.57813 17.0814C9.71181 16.9498 9.81791 16.7933 9.89031 16.6208C9.96272 16.4483 10 16.2633 10 16.0765C10 15.8897 9.96272 15.7047 9.89031 15.5322C9.81791 15.3597 9.71181 15.2032 9.57813 15.0716L3.44543 9L9.57813 2.92837C9.71181 2.7968 9.81791 2.64026 9.89031 2.4678C9.96272 2.29533 10 2.11034 10 1.92351C10 1.73667 9.96272 1.55168 9.89031 1.37921C9.81791 1.20675 9.71181 1.05021 9.57813 0.918643Z" fill="#FDFDFD"/>
</svg>
